<svg xmlns="http://www.w3.org/2000/svg" viewBox="0 0 792 381"><defs><style>.cls-1{isolation:isolate;}.cls-2{fill:none;}.cls-3{fill:#d7f7ff;}.cls-30,.cls-4{fill:#24dddd;}.cls-11,.cls-25,.cls-5{fill:#eb1478;}.cls-33,.cls-6{fill:#ffd2f2;}.cls-7{fill:#3dedf7;}.cls-8{fill:#0dd3d3;}.cls-11,.cls-39,.cls-40,.cls-9{opacity:0.5;}.cls-11,.cls-19,.cls-23,.cls-25,.cls-28,.cls-30,.cls-33,.cls-36,.cls-9{mix-blend-mode:multiply;}.cls-10{fill:#ff9cde;}.cls-12,.cls-19{fill:#009df7;}.cls-13{fill:#2f256a;}.cls-14{fill:#f8c6a3;}.cls-15{fill:#f3bd99;}.cls-16,.cls-36{fill:#003abc;}.cls-17,.cls-23{fill:#6150e2;}.cls-18{fill:#c17a61;}.cls-20{fill:#e0a375;}.cls-21{fill:#d7986a;}.cls-22{fill:#ce8e60;}.cls-24{fill:#b5715a;}.cls-26,.cls-28{fill:#00a5c8;}.cls-27{fill:#90c8ee;opacity:0.37;}.cls-29{fill:#edb48e;}.cls-31{fill:#f7d89a;}.cls-32{fill:#ff61bb;}.cls-34{fill:#ffdbc2;}.cls-35{fill:#fbd1b5;}.cls-37{fill:#6ee0ff;}.cls-38{fill:#e82386;}.cls-40{fill:#fff;mix-blend-mode:soft-light;}</style></defs><title>together</title><g class="cls-1"><g id="Objects"><rect class="cls-2" width="792" height="381"/><path class="cls-3" d="M191.5,229.14a47.37,47.37,0,0,0,5.13,3.71c7.19,4.49,18.5,7.18,26.89,3.9,11.65-4.57,10.37-17.15,6.08-25.92-6.07-12.38-20.18-22.29-35.88-19.29C169.43,196.19,178.46,218.32,191.5,229.14Z" transform="translate(21 -49)"/><path class="cls-3" d="M177.8,360.28c-47.27-13.7-82.26-53.44-84.23-95.65-.89-19.07,6.65-40.72,27-49a45.06,45.06,0,0,1,36.92,1.86c18.32,9.87,26.92,32.75,48.46,35.13,16.82,1.86,31.71-11.49,34.78-25.59s-2.43-28.43-8-42-11.27-27.77-8.62-41.93c3.35-17.92,21-33,41.91-37s44,2.92,58.11,16.56a51.69,51.69,0,0,1,14.39,50.94c-1.42,5.1-3.59,10.58-1.16,15.4,1.37,2.69,4,4.78,6.95,6.37,15.11,8.24,35.91,3.92,50.21-5.29s24.09-22.4,35.53-34.12,26.07-22.69,43.93-24.46c8.26-.82,17.27.66,23.22,5.58s7.9,12.34,8.89,19.35a115.21,115.21,0,0,1,.5,28.2c-.56,5.32-1.45,10.9,1,15.83,5.4,10.86,22.48,12.14,36.26,13.93,16.17,2.1,33,8,41,20,14.08,20.94-4.6,47.41.67,71.07.77,3.45,2.14,7,5,9.47,6.23,5.43,16.55,4.43,25.48,4.14,10.43-.35,21.41,1,29.8,6.24s13.24,15.19,9.07,23.27c-3.39,6.56-11.77,10.45-20.12,11.58s-16.88,0-25.29-.87c-51.53-5.22-103.6.78-155.46,2.48-93.84,3.06-187.84-8-281.6-3.51" transform="translate(21 -49)"/><path class="cls-4" d="M233.58,352.63a309.46,309.46,0,0,1-24-30.23,345.68,345.68,0,0,1-20.24-32.61,282.28,282.28,0,0,1-16.2-34.73l-3.36-9-2.87-9.14-1.42-4.57-1.15-4.65-2.27-9.3a1.21,1.21,0,0,1,2.34-.62l0,.08L167,227l1.3,4.54,1.58,4.46,3.17,8.9,3.64,8.72A280.22,280.22,0,0,0,194,287.15a340.51,340.51,0,0,0,21.09,31.25,301.15,301.15,0,0,0,24.39,28.46l.11.12a4.11,4.11,0,0,1-5.87,5.76Z" transform="translate(21 -49)"/><path class="cls-4" d="M222.15,334.78a58.67,58.67,0,0,1-4.76-17.12,58.94,58.94,0,0,1,7.14-36.19,65.24,65.24,0,0,1,5.31-8.1c1.94-2.59,4.2-4.86,6.36-7.32a9.47,9.47,0,0,1,14.23,12.49,9.88,9.88,0,0,1-1.51,1.39l-.92.66c-2,1.42-4.16,2.71-6.06,4.27a49.88,49.88,0,0,0-5.43,5.05,44.34,44.34,0,0,0-8.4,12.5,48.7,48.7,0,0,0-4.21,15.18,54,54,0,0,0,.52,16.34l0,.12a1.21,1.21,0,0,1-2.29.73Z" transform="translate(21 -49)"/><path class="cls-4" d="M221.32,329.65a52.72,52.72,0,0,0-14-8A53.15,53.15,0,0,0,174,319.92a57.15,57.15,0,0,0-8.29,2.85c-2.71,1.13-5.2,2.61-7.84,4A8.58,8.58,0,1,0,167.22,341l.79-.66c1.68-1.4,3.3-3.05,5.09-4.37a45.26,45.26,0,0,1,5.64-3.65,40.21,40.21,0,0,1,12.84-4.6,44.16,44.16,0,0,1,14.26-.33,49.29,49.29,0,0,1,14.23,4.08l.1.05a1.1,1.1,0,0,0,1.15-1.85Z" transform="translate(21 -49)"/><path class="cls-4" d="M203.07,309.77a42.87,42.87,0,0,1-5.24-17.58,59.14,59.14,0,0,1,1.46-18.66l1.24-4.58c.46-1.51,1.07-3,1.61-4.45a82.72,82.72,0,0,1,3.88-8.65c1.45-2.8,3.16-5.43,4.77-8.18l5.47-7.68a8.71,8.71,0,1,1,13,11.47l-.45.4-6,5.46c-1.78,2-3.73,3.88-5.44,5.95a70,70,0,0,0-4.77,6.47c-.7,1.13-1.5,2.25-2.15,3.42l-1.85,3.57A51.06,51.06,0,0,0,204,292.24a38.86,38.86,0,0,0,1.25,16.4l0,.15a1.21,1.21,0,0,1-2.19,1Z" transform="translate(21 -49)"/><path class="cls-4" d="M184.91,279.94a25.15,25.15,0,0,1-2.63-7.69c-.32-1.32-.38-2.65-.57-4s-.16-2.68-.15-4A57.52,57.52,0,0,1,184,248.38a94.1,94.1,0,0,1,5.73-15c1.23-2.34,2.44-4.73,3.73-7.07l4.13-6.82a6.93,6.93,0,1,1,11.11,8.18l-.25.28-4.84,5.39c-1.53,1.85-3,3.76-4.5,5.65a85.54,85.54,0,0,0-7.54,12.23,51.06,51.06,0,0,0-4.76,13.48c-.23,1.17-.36,2.35-.54,3.54s-.23,2.39-.16,3.58a22.66,22.66,0,0,0,1,7l.05.17a1.21,1.21,0,0,1-.77,1.52A1.22,1.22,0,0,1,184.91,279.94Z" transform="translate(21 -49)"/><path class="cls-4" d="M171.42,248a50,50,0,0,1,.34-9.47,62.14,62.14,0,0,1,1.92-9.55,65.66,65.66,0,0,1,3.43-9.41,70.33,70.33,0,0,1,4.88-9c1.85-3,5.32-4,7.75-2.21s2.92,5.6,1.07,8.57a7,7,0,0,1-1,1.3l-.1.1a53.67,53.67,0,0,0-5.4,6,51.4,51.4,0,0,0-4.62,7A55.17,55.17,0,0,0,176,239.3a48.68,48.68,0,0,0-2.36,8.46l0,.11a1.33,1.33,0,0,1-1.34,1.17A1,1,0,0,1,171.42,248Z" transform="translate(21 -49)"/><path class="cls-4" d="M201.35,303.88a40.65,40.65,0,0,0-15.06-9A52.1,52.1,0,0,0,169,292.11l-4.38.18c-1.46.11-2.89.38-4.34.57a69.52,69.52,0,0,0-8.57,1.84c-2.81.78-5.51,1.85-8.3,2.8l-8,3.6c-4.07,1.84-5.87,6.92-4,11.35s6.63,6.53,10.69,4.69a7.49,7.49,0,0,0,1.45-.86l.45-.34,6-4.61c2.11-1.28,4.2-2.75,6.39-3.95a61.81,61.81,0,0,1,6.74-3.19c1.16-.43,2.31-.95,3.5-1.32l3.58-1a43.76,43.76,0,0,1,15-1,35.34,35.34,0,0,1,14.7,4.87l.13.09a1.07,1.07,0,0,0,1.53-.42A1.29,1.29,0,0,0,201.35,303.88Z" transform="translate(21 -49)"/><path class="cls-4" d="M185.4,273.38a23.76,23.76,0,0,0-6.15-4.74c-1.08-.68-2.24-1.12-3.37-1.7s-2.33-.92-3.52-1.3a49.17,49.17,0,0,0-14.58-2.26,78.41,78.41,0,0,0-14.61,1.15c-2.37.5-4.77,1-7.15,1.52l-7,2c-3.37.94-5.33,4.71-4.38,8.41a6.48,6.48,0,0,0,7.83,5,6.6,6.6,0,0,0,1.07-.42l.31-.16,5.93-3.06c2-.93,4.05-1.77,6.09-2.68a71.94,71.94,0,0,1,12.62-3.67,43,43,0,0,1,13.06-.65c1.08.12,2.16.33,3.26.51a32.8,32.8,0,0,1,3.19.88,20.29,20.29,0,0,1,5.91,2.93l.14.1a1,1,0,0,0,1.53-.3A1.31,1.31,0,0,0,185.4,273.38Z" transform="translate(21 -49)"/><path class="cls-4" d="M172.69,247a52.18,52.18,0,0,0-9-4.62,64.15,64.15,0,0,0-9.87-3.14,66.4,66.4,0,0,0-10.52-1.6,74.15,74.15,0,0,0-10.85,0c-3.72.24-6.42,3.08-6,6.35s3.71,5.75,7.43,5.52a7.55,7.55,0,0,0,1.74-.32l.14,0a54.82,54.82,0,0,1,8.35-2.09,53.2,53.2,0,0,1,8.91-.79,57.37,57.37,0,0,1,9.21.64,50.79,50.79,0,0,1,9.09,2.15l.11,0a1.41,1.41,0,0,0,1.78-.68A1.18,1.18,0,0,0,172.69,247Z" transform="translate(21 -49)"/><path class="cls-4" d="M166.59,227.54a44.7,44.7,0,0,0-7.13-5,54.62,54.62,0,0,0-8.05-3.83,58.26,58.26,0,0,0-8.79-2.6,63.08,63.08,0,0,0-9.26-1.25c-3.2-.24-5.84,1.87-5.89,4.71s2.49,5.34,5.69,5.57a6.39,6.39,0,0,0,1.52-.06l.12,0a48,48,0,0,1,7.37-.81,45.5,45.5,0,0,1,7.7.37,48.61,48.61,0,0,1,7.79,1.62,43.43,43.43,0,0,1,7.5,2.89l.09.05a1.22,1.22,0,0,0,1.6-.38A1,1,0,0,0,166.59,227.54Z" transform="translate(21 -49)"/><path class="cls-4" d="M164.1,223.21a40,40,0,0,1,.17-7.73,50.82,50.82,0,0,1,1.5-7.78,49.85,49.85,0,0,1,2.77-7.66,56.72,56.72,0,0,1,4-7.29c1.52-2.41,4.42-3.19,6.48-1.74s2.51,4.6,1,7a5.17,5.17,0,0,1-.84,1l-.08.08A44,44,0,0,0,174.6,204a41.29,41.29,0,0,0-3.79,5.71,44.69,44.69,0,0,0-2.94,6.43A37.84,37.84,0,0,0,166,223l0,.09a1.09,1.09,0,0,1-1.11.95A.9.9,0,0,1,164.1,223.21Z" transform="translate(21 -49)"/><path class="cls-4" d="M162.79,220.4a60.61,60.61,0,0,1-5-7.93,73.38,73.38,0,0,1-8.49-27.54v-.05a6.06,6.06,0,1,1,12.05-1.23,6.47,6.47,0,0,1-.05,1.59,62.47,62.47,0,0,0-.47,16.88,65.86,65.86,0,0,0,1.45,8.61,58.08,58.08,0,0,0,2.62,8.4l0,.08a1.22,1.22,0,0,1-2.1,1.19Z" transform="translate(21 -49)"/><path class="cls-5" d="M217.63,339.68a33.1,33.1,0,0,1-4.24-1.11c-1.26-.48-2.57-.87-3.77-1.42-2.47-1-4.8-2.18-7.14-3.35a129.28,129.28,0,0,1-13.2-8.17c-2.11-1.46-4.22-2.94-6.21-4.55s-4.1-3.09-6-4.79l-5.83-5-5.59-5.22c-1.89-1.71-3.7-3.5-5.47-5.33l-5.36-5.43c-3.44-3.73-6.88-7.47-10.25-11.26s-6.58-7.72-9.78-11.65l-9.39-11.94a1,1,0,0,1,1.51-1.25l0,0,9.83,11.49c3.34,3.76,6.8,7.43,10.19,11.14s7.05,7.18,10.6,10.73l5.51,5.13c1.82,1.73,3.67,3.42,5.59,5l5.71,4.88,5.89,4.62c1.94,1.59,4,3,6,4.41s4.1,2.83,6.19,4.15a123,123,0,0,0,12.87,7.25c2.22,1,4.44,2,6.7,2.81,1.12.46,2.25.73,3.37,1.11a28.48,28.48,0,0,0,3.11.71l.18,0a3.52,3.52,0,1,1-.92,7Z" transform="translate(21 -49)"/><path class="cls-5" d="M142.46,281.22a35.81,35.81,0,0,1-2-7.1,44.23,44.23,0,0,1-.69-7.38,45.57,45.57,0,0,1,.53-7.53,50.2,50.2,0,0,1,1.74-7.47,4.32,4.32,0,0,1,8.27,2.47,5.17,5.17,0,0,1-.38.9l-.06.1A42,42,0,0,0,147,261a41,41,0,0,0-2.92,12.91,33.74,33.74,0,0,0,.23,6.75v.08a1,1,0,0,1-1.89.5Z" transform="translate(21 -49)"/><path class="cls-5" d="M159.25,299.08a53.75,53.75,0,0,1-2.77-10.36,71,71,0,0,1-1-10.74,74.08,74.08,0,0,1,.57-10.92,84,84,0,0,1,2.1-10.89,5.51,5.51,0,0,1,10.69,2.68,5,5,0,0,1-.39,1.08l-.07.14a74.47,74.47,0,0,0-3.85,8.92,67.77,67.77,0,0,0-2.61,9.51,64.57,64.57,0,0,0-1.2,9.94,51.15,51.15,0,0,0,.45,10.06v.07a1,1,0,0,1-.82,1.12A1,1,0,0,1,159.25,299.08Z" transform="translate(21 -49)"/><path class="cls-5" d="M179.08,315.6a52.2,52.2,0,0,1-3.65-11.67,54.75,54.75,0,0,1-1-12.37,58.34,58.34,0,0,1,.51-6.3,54,54,0,0,1,1.35-6.25,56,56,0,0,1,4.86-12,4.94,4.94,0,1,1,8.78,4.52,4.69,4.69,0,0,1-.42.69l-.18.23a47.36,47.36,0,0,0-5.76,9.21,46.11,46.11,0,0,0-2.09,5.12,51.31,51.31,0,0,0-1.42,5.42A50.44,50.44,0,0,0,179,303.55,49.45,49.45,0,0,0,180.48,315v.06a.75.75,0,0,1-1.41.5Z" transform="translate(21 -49)"/><path class="cls-5" d="M127.77,262.72c-3.16-2.76-6.23-5.6-9.23-8.59-1.5-1.5-3-3-4.41-4.66A43.93,43.93,0,0,1,110,244.1l-.07-.12a4.1,4.1,0,1,1,6.91-4.4,4.57,4.57,0,0,1,.45.95,35.85,35.85,0,0,0,2.28,5.2c.91,1.77,1.92,3.54,3,5.29,2.09,3.51,4.37,7,6.71,10.37v0a1,1,0,0,1-1.46,1.31Z" transform="translate(21 -49)"/><path class="cls-5" d="M198.73,330a21.91,21.91,0,0,1-4.42-10,31.32,31.32,0,0,1,.05-11.05,47.34,47.34,0,0,1,3.23-10.59q1.17-2.47,2.43-4.94l2.8-4.69a6,6,0,1,1,10.23,6.1,6,6,0,0,1-.83,1.09l-.25.26-3.25,3.31-3,3.54a39.4,39.4,0,0,0-4.62,7.83,25.76,25.76,0,0,0-2.18,8.78,19,19,0,0,0,1.59,9l.08.16a1.14,1.14,0,0,1-1.9,1.22Z" transform="translate(21 -49)"/><path class="cls-5" d="M135.71,273.4a32.23,32.23,0,0,0-6.43.16,39,39,0,0,0-12.1,3.49,40.25,40.25,0,0,0-5.31,3.06l-.07.05a4.32,4.32,0,0,1-4.75-7.22,4.8,4.8,0,0,1,.94-.46,47.34,47.34,0,0,1,7.08-2,43.69,43.69,0,0,1,7.17-.85,42.92,42.92,0,0,1,7.09.33,34.59,34.59,0,0,1,6.87,1.55,1,1,0,0,1,.61,1.25,1,1,0,0,1-1,.66Z" transform="translate(21 -49)"/><path class="cls-5" d="M153.56,291.51a49.39,49.39,0,0,0-9.46,1.61,62.6,62.6,0,0,0-9,3.11,64.47,64.47,0,0,0-8.33,4.35,69.72,69.72,0,0,0-7.52,5.38l-.09.07a5.52,5.52,0,1,1-6.87-8.63,5.72,5.72,0,0,1,1-.65,78.53,78.53,0,0,1,9.8-4.07,69.39,69.39,0,0,1,10.12-2.63,67.45,67.45,0,0,1,10.26-1.1,51.69,51.69,0,0,1,10.23.6,1,1,0,0,1-.11,2Z" transform="translate(21 -49)"/><path class="cls-5" d="M171.22,308.73a43.39,43.39,0,0,0-18.48,5.13,35.43,35.43,0,0,0-7.51,5.31,38.88,38.88,0,0,0-5.83,6.7l-.12.17a6,6,0,0,1-9.62-7,5.78,5.78,0,0,1,1-1,48.22,48.22,0,0,1,9.36-6.49,43.15,43.15,0,0,1,10.33-4A47.41,47.41,0,0,1,161,306a44.39,44.39,0,0,1,10.48.91.9.9,0,0,1-.15,1.78Z" transform="translate(21 -49)"/><path class="cls-5" d="M188.94,323.72a17.37,17.37,0,0,0-8.27,1.39,23.78,23.78,0,0,0-7,4.61,35.8,35.8,0,0,0-5.37,6.45l-2.16,3.66-1.87,3.84-.13.27a5.12,5.12,0,0,1-9.2-4.49,5.58,5.58,0,0,1,.61-1l3.12-3.89q1.69-1.86,3.44-3.65a42.74,42.74,0,0,1,8-6.13,28.45,28.45,0,0,1,9.42-3.57,20.17,20.17,0,0,1,9.93.59,1,1,0,0,1-.42,1.9Z" transform="translate(21 -49)"/><ellipse class="cls-6" cx="427.35" cy="306.63" rx="237.85" ry="14.37"/><path class="cls-7" d="M582.88,324.16a35.68,35.68,0,0,1-8.22-12.61,45.05,45.05,0,0,1-3.69-20.3c1.12-15.5,12.2-28.65,12.34-44.21.1-11-2.19-19.63,1.18-30.41,4.28-13.72,15.08-23.75,20.42-37.19a99.25,99.25,0,0,1,4.18-10.13c9-16.86,33.34-9.15,35.16,9.69,1.51,15.58-6.22,24.5-16.63,33-12.32,10-12,25.5-9.44,41,1.35,8.14-1.58,15.48-4.27,22.88-3,8.36-9,15.23-10.62,24.26a36.8,36.8,0,0,0,.93,15.58,15.67,15.67,0,0,1,.81,5.66,8.66,8.66,0,0,1-5,6.45c-5,2.41-10.89,1.14-15.37-2.22A21.79,21.79,0,0,1,582.88,324.16Z" transform="translate(21 -49)"/><path class="cls-4" d="M605.42,328.59c-3.71-3.44-4-11.31-4.18-16.33-.93-24.48,27.55-37.61,21-63.93-4.62-18.63,4.76-26.46,15.77-22,8.23,3.35,8.73,17.85,8.58,26a57.73,57.73,0,0,1-12.14,35.18c-3.52,4.47-8.21,9.3-9,15.56-.77,6.55-1.15,13.78-4,19.73s-10.18,10.41-15.7,6.11C605.71,328.84,605.56,328.72,605.42,328.59Z" transform="translate(21 -49)"/><path class="cls-4" d="M560.28,225.09c7.48,7.33,12.93,21.72,13.24,29.7.46,12-3.8,23.17-2.8,35.34A60.27,60.27,0,0,0,574,306.22c2,5.39,5.44,7.78,8.12,12.34,5.74,9.76-7.54,13.2-13.25,10.51-11.58-5.45-23.48-27.44-18.52-48.31a38.85,38.85,0,0,0-1.57-22.41c-2.3-6.3-6.54-11.57-8.63-17.89-1.84-5.53-.64-13.07,3.66-16.86C549.56,218.49,555.36,220.26,560.28,225.09Z" transform="translate(21 -49)"/><path class="cls-8" d="M598.76,332a1.35,1.35,0,0,1-1-.46c-.21-.23-20.93-23.75-8.52-51.29,12.14-26.92,13.53-40.9,12-60.32-1.09-13.59,6.88-21.6,14.59-29.34,3.78-3.81,7.7-7.75,10.39-12.27a1.39,1.39,0,0,1,2.38,1.42c-2.87,4.81-6.91,8.87-10.81,12.8-7.6,7.64-14.78,14.85-13.79,27.16,1.57,19.49.11,34.38-12.2,61.69-11.69,25.91,7.85,48.08,8,48.3a1.38,1.38,0,0,1-1,2.31Z" transform="translate(21 -49)"/><g class="cls-9"><path class="cls-4" d="M611.83,323.78a1.38,1.38,0,0,1-1.38-1.33c0-.91-.72-22.33,9.68-36.47,19.32-24.6,10.14-49.59,10-49.84a1.38,1.38,0,0,1,2.59-1c.1.26,9.81,26.71-10.44,52.49-9.8,13.34-9.12,34.48-9.11,34.69a1.39,1.39,0,0,1-1.34,1.44Z" transform="translate(21 -49)"/></g><g class="cls-9"><path class="cls-4" d="M570.87,323.78a1.37,1.37,0,0,1-1.09-.53c-.6-.78-14.6-19.23-9.77-48.24,4.58-27.52-11.86-40.59-12-40.72a1.38,1.38,0,0,1,1.69-2.19c.73.56,17.93,14.13,13.07,43.36-4.63,27.83,9.09,45.91,9.23,46.09a1.39,1.39,0,0,1-.25,1.94A1.35,1.35,0,0,1,570.87,323.78Z" transform="translate(21 -49)"/></g><path class="cls-10" d="M631.08,319a5,5,0,0,0-4.93-4.55h-72a5,5,0,0,0-4.94,4.55c-.78,9.44-1.36,30.9,8.51,38.67a4.55,4.55,0,0,0,2.84.89h59.18a4.52,4.52,0,0,0,2.83-.89C632.44,349.86,631.87,328.4,631.08,319Z" transform="translate(21 -49)"/><path class="cls-11" d="M628.52,348.69c-48.67,2.74-70.06-14.44-79.48-27.26-.63,10.3-.41,29.05,8.68,36.2a4.55,4.55,0,0,0,2.84.89h59.18a4.52,4.52,0,0,0,2.83-.89A20,20,0,0,0,628.52,348.69Z" transform="translate(21 -49)"/><path class="cls-12" d="M255.91,258.36c2.63-.63,4.15-5.49,3.31-9.05-1.08-4.56-2.9-6.2-7.58-7.91Z" transform="translate(21 -49)"/><path class="cls-13" d="M418.93,339.19l-.61,13.73h50.22s-1.37-11.15-2.28-14.84Z" transform="translate(21 -49)"/><path class="cls-14" d="M474.82,284.14a10.92,10.92,0,0,1,7.11-3.33c4.51-.29,5-.06,6.9-.58s3-1.51,1.68-6.17a7,7,0,0,1-5.94-.47c-3-1.76-6.33-5-5.61-18.89.38-7.4,14.41-14.34,21.45-8.84s7.37,14.42,5.39,18.71-3,4.88-3.41,7.17-.09,5.59,1.45,6.8,12.47.49,15.43,4.36c4.15,4.69,18,23.72,21.3,28.92,1.59,2.51,3.3,4.7,2.92,5.95-.76,2.79-21.69,35.15-21.69,35.15h-3.42l-.85-11.2,11.16-22.24L517.3,302.75l-39.49,4-.19-6a70.65,70.65,0,0,1-9-.47Z" transform="translate(21 -49)"/><path class="cls-15" d="M502.25,273.46a2,2,0,0,1-.09.49A3.22,3.22,0,0,1,500.1,276a9.71,9.71,0,0,1-2.9.38,10.35,10.35,0,0,1-6.66-2.34,7,7,0,0,1-6.5-.8,3.57,3.57,0,0,0,3.9-4.59c-.51-1.79,14.31,4.79,14.31,4.79Z" transform="translate(21 -49)"/><path class="cls-15" d="M532.41,319.74c-.25-.85-3.21-5.92-3.21-5.92,4.73-2.45,7.17-8.14,7.17-8.15h0l-4.38-3-13.32,2.11,10,14.71-11.16,22.24.27,3.51C521.51,339,532.62,320.44,532.41,319.74Z" transform="translate(21 -49)"/><path class="cls-5" d="M490.37,279.46c3.24,1.05,10.52,1.59,13.47-.92,0,0,3.83.26,6,.45,3.38.28,7.19.25,10.74,3.93s16.08,22.23,16.08,22.23S533,311.87,523.43,313l-4.78-6.77s-.91,12.88-.4,24c.35,7.62,1.46,22.66,1.46,22.66H474.25s-1.19-38.68,1.35-47l4.33-24.81a40.81,40.81,0,0,1,4.59-.46A22.7,22.7,0,0,0,490.37,279.46Z" transform="translate(21 -49)"/><path class="cls-16" d="M507.13,245.84a5.83,5.83,0,0,0-2.05.11,6.87,6.87,0,0,0,.25-1.11,5.87,5.87,0,0,0-9.51-5.3,2.21,2.21,0,0,0-3.38,0A6.88,6.88,0,0,0,480,245.2c-.22,0-.44-.1-.66-.13a4.92,4.92,0,0,0-1.23,9.76,4.73,4.73,0,0,0,.92,0c1,4.35,4.08,5.74,5,5.63s.56-3.72,3.36-3.83c4-.16,4.22,5.49,3,7.77s-2.36,1.51-3,1.7c-.93.59,1,4.14,4.11,6.12a13.77,13.77,0,0,0,10.21,1.42,5.88,5.88,0,0,0,2.46-1.93l.17,0a3.47,3.47,0,0,0,3.86-3,3.4,3.4,0,0,0-.51-2.27,4.92,4.92,0,0,0,3.45-4.1,4.8,4.8,0,0,0-.59-3,2.22,2.22,0,0,0,1-1.58,2.25,2.25,0,0,0-.77-2,5.91,5.91,0,0,0,1.55-3.31A6,6,0,0,0,507.13,245.84Z" transform="translate(21 -49)"/><path class="cls-16" d="M506.55,269.54c-1.47,0-1.79-1.6-2.37-1a10.76,10.76,0,0,1-3,1.92c-1.7.79-6.85.65-8.05.07-3.95-1.93-4-3.48-4-3.48,2.56-1.21,2.06-3.46,1.89-5.41a6.47,6.47,0,0,1-.67,2.81c-1.27,2.29-2.36,1.51-3,1.7-.93.59,1,4.14,4.11,6.12a13.77,13.77,0,0,0,10.21,1.42,5.88,5.88,0,0,0,2.46-1.93l.17,0a3.47,3.47,0,0,0,3.86-3,2.84,2.84,0,0,0,0-.77A1.56,1.56,0,0,1,506.55,269.54Z" transform="translate(21 -49)"/><path class="cls-14" d="M376.47,264.61a2.4,2.4,0,0,0-3.82.6c-1.12,1.72,1.28,7.94,4.72,6Z" transform="translate(21 -49)"/><path class="cls-14" d="M403,264.61a2.4,2.4,0,0,1,3.82.6c1.12,1.72-1.27,7.94-4.72,6Z" transform="translate(21 -49)"/><ellipse class="cls-17" cx="410.73" cy="217.68" rx="14.5" ry="15.75"/><path class="cls-13" d="M404.22,266.68a16.77,16.77,0,0,0-1.5-7,11.16,11.16,0,0,1-2.25,9.45c-1.7,2.21-10.16,3.36-17.16.93a9.15,9.15,0,0,1-5.51-12.35,16.6,16.6,0,0,0-2.57,8.95c0,8.69,6.49,15.74,14.5,15.74S404.22,275.37,404.22,266.68Z" transform="translate(21 -49)"/><ellipse class="cls-17" cx="396.02" cy="250.5" rx="7" ry="9.26" transform="translate(19.34 449.36) rotate(-64.25)"/><path class="cls-13" d="M260.36,352.92c.71-6.5,2.11-14.71,3.78-19.34h44.74c1.68,4.63,3.08,12.84,3.79,19.34Z" transform="translate(21 -49)"/><polygon class="cls-16" points="381.71 285.82 336.22 285.82 335.2 303.92 382.72 303.92 381.71 285.82"/><path class="cls-14" d="M326.15,252.42a2.4,2.4,0,0,0-3.82.6c-1.13,1.72,1.27,8,4.72,6Z" transform="translate(21 -49)"/><path class="cls-14" d="M351.62,252.4a2.41,2.41,0,0,1,3.82.64c1.11,1.74-1.36,7.94-4.79,6Z" transform="translate(21 -49)"/><rect class="cls-14" x="352.88" y="217.98" width="12.17" height="10.31"/><path class="cls-15" d="M331.88,268.29v2.06s1.28,1.79,6.08,1.79,6.09-1.33,6.09-1.33V267H331.88Z" transform="translate(21 -49)"/><path class="cls-18" d="M430.28,254.59a2.41,2.41,0,0,0-3.83.6c-1.12,1.72,1.28,7.94,4.72,6Z" transform="translate(21 -49)"/><path class="cls-19" d="M255.91,258.36c2.63-.63,4.15-5.49,3.31-9.05-1.08-4.56-2.9-6.2-7.58-7.91Z" transform="translate(21 -49)"/><path class="cls-20" d="M262.52,282a22.7,22.7,0,0,0-9-3.06c-4.51-.3-5-.06-6.9-.58s-3-1.52-1.68-6.17c0,0,3.67,1.12,6.66-.62,4.66-2.72,4.43-11.71,4.43-19.11s-13.95-14-21-8.47-7.37,14.41-5.39,18.7,3,4.88,3.41,7.17.09,5.6-1.45,6.8-9.42-.77-13.18,3.63-16.83,26.52-19.25,30.81-3.85,5.72-1.76,10.34,13.75,20,13.75,20l5.06-6.59-8.14-17.94L220,300.38l37.67,4.48.19-5.49s10.22-1.75,15.16-3.75Z" transform="translate(21 -49)"/><path class="cls-21" d="M270.34,292.12c-1.21.4-8.64-5.82-9.19-4.43-.71,1.83,0,5.26,2,7.12-3.15.78-6.93,1.47-7.88,1.29-2.52-.49-5.86-5.12-6.08-10.88L244,298.4l1.43,5,12.29,1.46.19-5.49s10.22-1.75,15.16-3.75Z" transform="translate(21 -49)"/><path class="cls-22" d="M233.27,271.54a1.53,1.53,0,0,0,.1.48,3.16,3.16,0,0,0,2.06,2.07,9.32,9.32,0,0,0,2.89.38,10.37,10.37,0,0,0,6.66-2.33s3.69,1.14,6.66-.62c-2.22-.5-5.13-2.14-5.25-4s-13.12,4-13.12,4Z" transform="translate(21 -49)"/><path class="cls-21" d="M220.18,293.07S204.67,314.26,204,315.46s11.75,18.12,11.75,18.12l-7.57-16.7L220,300.38l6.18.73,1.22-3.76Z" transform="translate(21 -49)"/><path class="cls-17" d="M225.21,277.29c-3,5.81-6,14.51-5.2,23.09s3.76,16.5,2.54,21.12S209.34,340,204,352.92h52.69s1.1-12.72,1.21-27.79-.26-22.81-.26-22.81-5.48.76-7.3-6.76c-2.07-8.57-1.13-14.53,1.18-16.74l-4.23-.42c-1.34,1.64-3.11,5.32-5.61,8.11-2.88,3.2-11.5,2.92-13.11-.08-1.17-2.2-.13-7.42.85-9.35A12.66,12.66,0,0,0,225.21,277.29Z" transform="translate(21 -49)"/><path class="cls-23" d="M257.82,311.27c-3.39.71-18.57,3.87-19.2,3.69s-12.61-1.21-16.41-1.54a32,32,0,0,1,.62,5.37h0s18.5,5,23.55,5.35,7.46-1.42,11.48-5.35Q257.87,314.48,257.82,311.27Z" transform="translate(21 -49)"/><path class="cls-14" d="M273,295.62c-3.23.75-5.84,1.79-15.16,3.75-5.33,5.13-11.35,10.79-12.39,11.19-1.93.75-22.24.33-23.93-.58l-.7-3.61s-1.87,1.19-1.53,5.67,2.26,4.82,2.26,4.82,21.57,4.57,26.33,3.25,25.59-18.8,25.59-18.8Z" transform="translate(21 -49)"/><path class="cls-15" d="M273.12,296.77l-4.07-.09s-6.23,7.33-9.6,10.61-9.84,10.44-13.06,11-22.24-.87-22.25-.87c5.85,1.16,20,3.77,23.77,2.73,4.75-1.32,25.59-18.8,25.59-18.8Z" transform="translate(21 -49)"/><path class="cls-18" d="M455.82,254.57a2.4,2.4,0,0,1,3.82.64c1.1,1.74-1.36,7.93-4.79,6Z" transform="translate(21 -49)"/><rect class="cls-18" x="457.77" y="220.15" width="12.17" height="10.31"/><path class="cls-24" d="M436.77,269.15v3a16,16,0,0,0,6.77,1.1c3.87-.2,5.4-1.66,5.4-1.66v-2.43Z" transform="translate(21 -49)"/><path class="cls-5" d="M269.05,296.68c.14,3.46.17,10.11.88,14.59,1,6.38-4.39,13.72-6.37,22.29,0,0,8,4.52,22.95,4.52s22.95-4.52,22.95-4.52c-2-8.57-7.37-15.91-6.37-22.29.71-4.48,1.21-11.09,1.35-14.54Z" transform="translate(21 -49)"/><path class="cls-25" d="M303.09,314.6a11.61,11.61,0,0,1,0-3.33c.46-2.87.82-6.6,1.07-9.83l-.76-4-.84-.75-33.51-.05c0,.58,0,1.26.06,2h0c1.52.35,5.44,3,6.42,8,.82,4.19,3.29,10.77,12.91,11.93C294.45,319.34,299.87,316.73,303.09,314.6Z" transform="translate(21 -49)"/><path class="cls-26" d="M363.07,342.35s-5.75,3-25.11,3-25.11-3-25.11-3,.06-1.41.19-3.86c.22-4.34.64-12,1.25-20.94,0-.15,0-.31,0-.47q.06-1.06.15-2.16c0-.25,0-.49,0-.73.44-6.05,1.25-11.44,1.32-17.39.06-.36.11-.72.15-1.07l.15-1.06c.16-1.05.31-2.09.47-3.11l.24-1.58c1.34-8.41,2.74-14.94,3.43-15.3,1.27-.68,11.58-1.44,11.58-1.44s1.7,2.05,6.09,2.05,6.09-2.05,6.09-2.05,10.32.76,11.58,1.44,3.72,17.77,5,33.41S363.07,342.35,363.07,342.35Z" transform="translate(21 -49)"/><path class="cls-27" d="M356.83,289.8c-2.62.95-1.12,11.52-1.12,11.52l4.25-.39c-.39-4-.84-7.86-1.31-11.38A6.37,6.37,0,0,0,356.83,289.8Z" transform="translate(21 -49)"/><path class="cls-28" d="M360.71,315.16s-17.79,7.47-21.52,9-16-3.2-18.4-4c-.88-.3-4.15-1.4-7.75,18.35.22-4.34.64-12,1.25-20.94,0-.15,0-.31,0-.47q.06-1.06.15-2.16c0-.25,0-.49,0-.73.44-6.05,1.25-11.44,1.32-17.39.06-.36.11-.72.15-1.07l.15-1.06c.16-1.05.31-2.09.47-3.11l.24-1.58c2.66.95,3.44,2.44,3.83,5.06.58,3.82.48,15.66.48,15.66l17.91,7.46Z" transform="translate(21 -49)"/><path class="cls-14" d="M311.66,295.62s22.79,14.32,24.77,14.93,22.52-1.85,24.15-2.89l-.27-3.14s3.06.83,3,5.32-2.65,5.32-2.65,5.32-21.19,6.06-26,5.08-29.38-15.18-29.38-15.18Z" transform="translate(21 -49)"/><path class="cls-29" d="M360.31,304.52l.27,3.14c-1.63,1-22.17,3.5-24.15,2.89a56.36,56.36,0,0,1-5.43-3l-2.94-.19A44.48,44.48,0,0,0,341.9,315c7,2.16,7.31.93,10.36-.51a67.61,67.61,0,0,0,10.84-6.65A4.45,4.45,0,0,0,360.31,304.52Z" transform="translate(21 -49)"/><path class="cls-15" d="M335.49,317.28c-2-1-23.21-12.95-27.67-16l-2.53,3.74s24.55,14.19,29.38,15.18,26-5.08,26-5.08S337.77,318.39,335.49,317.28Z" transform="translate(21 -49)"/><path class="cls-4" d="M289.12,239.8c-4.21,0-10.22.37-12.05,7.21-3.43,0-7,2.05-6.49,7,.65,6.28-.19,7.77-2.81,10a9.24,9.24,0,0,0-3.48,9.32c.49,2.9-.75,6.17-2.46,10.44s-.32,10.13,5,12.15,8.42,3.2,10,7.79,5.68,11.34,16.83,10.83c13.31-.61,20-14.17,17.72-21.6-1.92-6.19-2.13-8.64-.85-13.43,1.2-4.45.59-8.94-5-12.44-4.22-2.63-3.85-9.08-4.4-13.12C300.25,247.1,297,239.8,289.12,239.8Z" transform="translate(21 -49)"/><path class="cls-30" d="M263.56,280.46l-1,1.49c3.8,2.23,15.22,11.38,18.73,12.53s20.94,2.54,30.55,3a12.12,12.12,0,0,0-.38-4.63,32.68,32.68,0,0,1-1.61-7.1l-20.88-1.13Z" transform="translate(21 -49)"/><path class="cls-18" d="M403.33,272.81c-4.16.4-15.07.91-22.28-.37s-15.78-3.08-20.59-1.43a42.47,42.47,0,0,0-7.28,3.14l2.43.51s32.57,11.16,34.12,11.31,14-1.05,14-1.05Z" transform="translate(21 -49)"/><path class="cls-24" d="M389.73,286c1.39.13,11.72-.83,13.7-1l-4-7.81c-3.84,1.29-8.51,3.38-10.4,3.32s-22.29-7-26.55-7.22a40.81,40.81,0,0,0-9.3.91l2.43.51S388.18,285.82,389.73,286Z" transform="translate(21 -49)"/><path class="cls-4" d="M464,275.1c-5.57-.21-11.72-2.43-15.08-1.19,0,0-.82,1.86-5.72,2.12a11.93,11.93,0,0,1-6.45-1.41s-5.54-1.61-9.93-2.66c-4-1-6.12-.76-10.77-.38s-16,1.47-16,1.47-2.93,11.05,2.94,16.5c0,0,5.93.82,9.1,1.53,4.13.91,5.2,2.05,5.2,3.21,0,2.72,0,30.86.88,44.55,0,0,7.07,4,26.62,3.62s22.92-3.37,22.92-3.37-3-40.14-3-42.26a2.74,2.74,0,0,1,.33-1.49" transform="translate(21 -49)"/><path class="cls-4" d="M422.22,324.18c3-2.35,39.44,10,41.36,8.26a23.82,23.82,0,0,0,3.28-5.12c-.13-1.7-.26-3.49-.39-5.34-3.06.54-7.32,1.45-7.32,1.45l1.63-13.11s-34,0-36.32-2.34-2.83-15-3.12-17.88-6.06-4.77-12.17-6L406,278.17l-6.35,4.6a11.75,11.75,0,0,0,3.38,6.78s5.93.82,9.1,1.53c4.13.91,5.2,2.05,5.2,3.21,0,2.72,0,30.86.88,44.55C418.19,338.84,419.27,326.54,422.22,324.18Z" transform="translate(21 -49)"/><path class="cls-31" d="M412.63,271.88l-13.2,5.26h0a22.35,22.35,0,0,0,.18,5.54l5.92.39,6.09-5.92,1-5.27Z" transform="translate(21 -49)"/><path class="cls-14" d="M298.27,278l-13,2.95S271.72,276.72,266,276s-12.44,2.94-12.44,2.94,6,1.14,9,3.06S280.3,292,285.14,292.24s17.38,0,17.38,0Z" transform="translate(21 -49)"/><path class="cls-15" d="M285.14,292.24c4.84.22,17.38,0,17.38,0L298.27,278a17.9,17.9,0,0,0-5.4,10.56,38.29,38.29,0,0,1-7.76.46c-3.19-.29-20.19-8.47-24-9.11s-7.59-1-7.59-1,6,1.14,9,3.06S280.3,292,285.14,292.24Z" transform="translate(21 -49)"/><path class="cls-32" d="M367,300.8s0,4.75,4.17,12c2.18,3.75,1.5,7.18,0,13.75s-6.27,26.4-6.27,26.4l52.65.08s-3.11-13.74-9.07-23.56c-5.07-8.37-9.6-12.66-8.88-16.09,1.47-7,6.48-22.92,4.21-24.82L367,290.66Z" transform="translate(21 -49)"/><path class="cls-33" d="M371.12,302.47a13.32,13.32,0,0,0,2.24-4.07s16.43.78,18.95.77c1.9,0,8.82-5.21,12-8,.05-1.33-.11-2.28-.57-2.67L367,290.66V300.8a16.08,16.08,0,0,0,.63,3.72A6,6,0,0,0,371.12,302.47Z" transform="translate(21 -49)"/><path class="cls-30" d="M422.22,324.18c3-2.35,39.44,10,41.36,8.26a23.82,23.82,0,0,0,3.28-5.12c-.13-1.7-.26-3.49-.39-5.34-3.06.54-7.32,1.45-7.32,1.45l1.63-13.11s-34,0-36.32-2.34-2.83-15-3.12-17.88-6.06-4.77-12.17-6L406,278.17l-6.35,4.6a11.75,11.75,0,0,0,3.38,6.78s5.93.82,9.1,1.53c4.13.91,5.2,2.05,5.2,3.21,0,2.72,0,30.86.88,44.55C418.19,338.84,419.27,326.54,422.22,324.18Z" transform="translate(21 -49)"/><path class="cls-30" d="M470.49,289.54a13,13,0,0,0-2.05.24c-5.33,1.08-4.23,5.39-5.72,9.39.69-1.21,1.44-2.5,2.24-3.83.58-.92,2.07-1.31,5-1.22a55,55,0,0,0,9.19-.73,24.29,24.29,0,0,0,.8-5.79A31.43,31.43,0,0,1,470.49,289.54Z" transform="translate(21 -49)"/><path class="cls-14" d="M477.79,306.09s-8.6,15.32-13.69,22a2.89,2.89,0,0,1-2.69,1.34C458,329.38,425,319.8,421.11,318c-4.27-1.94-5.89-3.54-6.52-8.45s2.73-10.14,2.73-10.14l0,6.59s7.47,3.21,11.17,4.23,25.76,5.15,25.76,5.15l9.39-15Z" transform="translate(21 -49)"/><path class="cls-15" d="M473.54,304.37l-9.86-4L458.9,308a16,16,0,0,0,3.4,6.43,16.67,16.67,0,0,0,3.88,3.41s-3.75,6.09-4.75,6.84-32.49-7.94-32.49-7.94l20.7-2.24c-6.32-1.2-18.31-3.51-21.11-4.27-3.7-1-11.17-4.23-11.17-4.23l0-6.59s-3.35,5.24-2.73,10.14,2.25,6.51,6.52,8.45c3.86,1.76,36.85,11.34,40.3,11.41a2.89,2.89,0,0,0,2.69-1.34c4-5.23,10.07-15.68,12.56-20Z" transform="translate(21 -49)"/><path class="cls-34" d="M403.76,288.53c2.49-.37,5.12,3.5,9.08,6.85,3.57,3,12.77,9.5,14.1,9.56l33.16,1.17-4.68,7.5c-4.51.84-29.62,2.15-31.39,1.64-3.37-1-21.73-12.88-21.73-12.88C403.54,296.7,404.06,291.09,403.76,288.53Z" transform="translate(21 -49)"/><path class="cls-5" d="M481.47,300.59c-2.45,6.19-9.17,16.7-9.17,16.7-9.55-1.58-13.94-10.17-13.94-10.17s1.75-3.4,4.35-7.94h0c.69-1.21,1.44-2.5,2.24-3.83.58-.92,2.07-1.31,5-1.22a55,55,0,0,0,9.19-.73,24.29,24.29,0,0,0,.8-5.79,31.43,31.43,0,0,1-9.43,1.94,13,13,0,0,0-2.05.24c.34-.52.68-1,1-1.54,3.93-5.81,7.46-7.51,10.46-7.1C483.3,285.2,483.13,296.4,481.47,300.59Z" transform="translate(21 -49)"/><path class="cls-34" d="M371.12,290.16c-2.85-.48-7.79,1.87-11.75,5.22-3.57,3-13.65,9.52-15,9.58-1.83.09-21-2-21-2s5.66,6.73,12.88,9c5.71,1.83,9.28,2.58,12.75,2.07s19.46-11.67,19.46-11.67C371.12,300.73,372.82,292.93,371.12,290.16Z" transform="translate(21 -49)"/><path class="cls-35" d="M367.62,297.48c.73,1.08-9.76,7.93-12.84,10.23s-5.85,3.79-9.25,3.56-12.31-1.88-21.76-7.93h0c1.38,1.51,6.38,6.65,12.5,8.62,5.71,1.83,9.28,2.58,12.75,2.07s19.46-11.67,19.46-11.67c2.64-1.63,4.34-9.43,2.64-12.2-2.85-.48-7.79,1.87-11.75,5.22C359.37,295.38,366.89,296.4,367.62,297.48Z" transform="translate(21 -49)"/><path class="cls-14" d="M376.69,279.92l12.72,4.48s16-9.11,21.42-11.16c8.78-7.49,16-1.28,16-1.28s-3.47.18-12.32,7.5c-2.7,2.23-18.6,16.87-23.44,16.64s-20-2.35-20-2.35Z" transform="translate(21 -49)"/><path class="cls-15" d="M391.08,296.1c4.84.23,20.74-14.41,23.44-16.64,8.85-7.32,12.32-7.5,12.32-7.5-3.09-1.76-8,.53-13.2,4.81s-20.19,15.55-22,15.56-10.73-1.23-10.73-1.23c-1.07-9.53-4.2-11.18-4.2-11.18l-5.57,13.83S386.24,295.86,391.08,296.1Z" transform="translate(21 -49)"/><path class="cls-26" d="M355.61,274.66s3.54-.39,9.54,1.48c6.42,2,11.54,3.78,11.54,3.78s4.68,5.77,1.08,16.18c0,0-5.41-.43-11.25-1.09-5.29-.61-5.27-1.09-7.15.37,0,0-2.81-1.2-4.08-8.68C354,278.9,355.61,274.66,355.61,274.66Z" transform="translate(21 -49)"/><path class="cls-28" d="M356.16,290.35c1.38,4.25,3.21,5,3.21,5,1.88-1.46,1.86-1,7.15-.37,5.84.66,11.25,1.09,11.25,1.09a25.49,25.49,0,0,0,1.13-4.52c-6.89-.83-19.45-2.73-22.07-1.78A1.45,1.45,0,0,0,356.16,290.35Z" transform="translate(21 -49)"/><path class="cls-12" d="M250.88,258.27c1,.12,3.75-1.62,4.7-6.1,0,0,3-7.59-4.36-11s-14.65-2.69-19.57,1.77c-5.87,5.31-6.53,13.25-4.86,19,1.47,5.07,2.81,7.87,7,9.74A13.72,13.72,0,0,0,244,270.31c3.15-2,5-5.53,4.11-6.12-.6-.19-1.69.59-3-1.69s-1-7.87,3-7.78C251,254.79,249.91,258.16,250.88,258.27Z" transform="translate(21 -49)"/><path class="cls-12" d="M237,241.13s-1.14-11.06-11.91-12.76c-10.93-1.74-16.68,2.93-18.93,8.88-2.35,6.21,2.19,13.53-3.3,17.42s-11.16,5.58-11.58,11.58,3.8,7.25,4.31,10.56-2.44,6.77,1.7,11,16,4.83,22.31-4.43c5.43-7.93,3.46-15.95,3.63-24.49s.95-13.34,4.74-16c3.27-2.29,7,.5,7,.5Z" transform="translate(21 -49)"/><path class="cls-13" d="M331.85,242.07a4.52,4.52,0,0,0-4.8,1.05c-2.25,2.18-2.93,7.43-1.35,13.5s3,12.46,12.44,13.19c8.62.68,12.53-6.41,13.59-12.57.77-4.49,1-6.77,1-6.77a7,7,0,0,0,3.42-2.83c1.55-2.63-.82-2-3.3-2.28a10.16,10.16,0,0,0,3.94-3.93c1.6-3.65.09-4.42-3-3.74s-6.33-.19-10.75-1.46S332,235.93,331.85,242.07Z" transform="translate(21 -49)"/><path class="cls-26" d="M330.4,273.35s1.16,3.42,7.56,3.42,7.57-3.42,7.57-3.42h0l-1.46-.11s-1.69,2.05-6.09,2.05-6.08-2.05-6.08-2.05l-1.47.11Z" transform="translate(21 -49)"/><path class="cls-26" d="M320.29,274.67a29.07,29.07,0,0,0-10.18.59c-6.58,1.4-11.84,2.69-11.84,2.69s-5.2,5.3-2.59,16c0,0,5.19.2,11.07.34,5.56.14,8.21.81,9.11,2.51,0,0,2.66-2.34,4.09-10.12S320.29,274.67,320.29,274.67Z" transform="translate(21 -49)"/><path class="cls-28" d="M311.2,294.6c2.62.36,4.05,1,4.66,2.2,0,0,1.61-1.43,3-5.73-1.26-1.05-3.36-1.66-7-2.1-5.42-.66-12.13-.44-16.91-.44,0,.37,0,.74.05,1.12a2.29,2.29,0,0,1,0,.25q0,.59.12,1.2h0c.05.4.12.81.19,1.22l.06.31c.08.43.17.86.28,1.31,0,0,5.19.2,11.07.34,1.2,0,2.25.09,3.19.17Z" transform="translate(21 -49)"/><path class="cls-36" d="M506.55,269.54c-1.47,0-1.79-1.6-2.37-1a10.76,10.76,0,0,1-3,1.92c-1.7.79-6.85.65-8.05.07-3.95-1.93-4-3.48-4-3.48,2.56-1.21,2.06-3.46,1.89-5.41a6.47,6.47,0,0,1-.67,2.81c-1.27,2.29-2.36,1.51-3,1.7-.93.59,1,4.14,4.11,6.12a13.77,13.77,0,0,0,10.21,1.42,5.88,5.88,0,0,0,2.46-1.93l.17,0a3.47,3.47,0,0,0,3.86-3,2.84,2.84,0,0,0,0-.77A1.56,1.56,0,0,1,506.55,269.54Z" transform="translate(21 -49)"/><path class="cls-12" d="M450.08,242.71a4.5,4.5,0,0,1,4.8,1c2.25,2.17,2.92,7.42,1.35,13.49s-3.67,13.92-13.12,13.92c-9.88,0-11.85-7.13-12.91-13.3-.77-4.48-1-6.77-1-6.77a7,7,0,0,1-3.42-2.82c-1.55-2.64.83-2,3.3-2.29a10.09,10.09,0,0,1-3.93-3.93c-1.61-3.64-.09-4.41,3-3.74s6.32-.18,10.75-1.46S449.93,236.56,450.08,242.71Z" transform="translate(21 -49)"/><path class="cls-18" d="M476.37,275.18c6.66-.27,25.44-4.61,28-3.42s4.86,4,1.61,8.16S483,291.56,478,291.58Z" transform="translate(21 -49)"/><path class="cls-24" d="M506,279.92c2.28-2.9,1.82-5.16.46-6.66.49,1.68,1.05,3.62-4.51,6.33S482,286,482,286c-1.82-8-5.62-10.8-5.62-10.8l1.67,16.4C483,291.56,502.73,284.07,506,279.92Z" transform="translate(21 -49)"/><path class="cls-4" d="M465,295.25c.57-.92,2-1.22,4.9-1.13a55,55,0,0,0,9.19-.73s3.07-10.26-2.75-18.21c0,0-6.79.13-12.35-.08C464,275.1,456.07,287.76,465,295.25Z" transform="translate(21 -49)"/><path class="cls-30" d="M470.49,289.54a13,13,0,0,0-2.05.24c-5.33,1.08-4.23,5.39-5.72,9.39.69-1.21,1.44-2.5,2.24-3.83.58-.92,2.07-1.31,5-1.22a55,55,0,0,0,9.19-.73,24.29,24.29,0,0,0,.8-5.79A31.43,31.43,0,0,1,470.49,289.54Z" transform="translate(21 -49)"/><path class="cls-35" d="M424.46,312.16c-1.32-.68-18.19-10.38-18.48-10.84s-.67-1.37-.58-5.7a13.71,13.71,0,0,0-1.64-7.09c.3,2.56-.22,8.17-1.46,13.84,0,0,18.36,11.92,21.73,12.88,1.77.51,26.88-.8,31.39-1.64l1.41-2.25C450.37,311.66,425.6,312.74,424.46,312.16Z" transform="translate(21 -49)"/><path class="cls-13" d="M401.37,257.3s-6.1,2.65-12.2-3.4c0,0,1.39,4.9,8.29,5.72,2.59.31,5-.51,4.81-.84C402,258.27,401.69,257.77,401.37,257.3Z" transform="translate(21 -49)"/><path class="cls-5" d="M463.49,313.21a18.57,18.57,0,0,0,8.81,4.08s6.72-10.51,9.17-16.7a17.86,17.86,0,0,0,1-4.49c-7.93,16.63-18.94,17.11-18.94,17.11Z" transform="translate(21 -49)"/><path class="cls-5" d="M519.32,297.59a66.39,66.39,0,0,1-.67,8.63l4.78,6.77a19.71,19.71,0,0,0,5.77-1.55Z" transform="translate(21 -49)"/><path class="cls-37" d="M527.28,251.6a7.5,7.5,0,1,1,7.49-7.49A7.5,7.5,0,0,1,527.28,251.6Zm0-12.29a4.8,4.8,0,1,0,4.79,4.8A4.8,4.8,0,0,0,527.28,239.31Z" transform="translate(21 -49)"/><path class="cls-3" d="M361.06,155.44a38.27,38.27,0,0,0-3.55,3.94c-4.28,5.5-6.85,14.16-3.72,20.58,4.36,8.93,16.37,7.95,24.73,4.66a57.44,57.44,0,0,0,19.65-12.78c2.93-2.93,5.52-6.24,6.71-10,2.46-7.79-2.67-15.6-11.49-17.29C381.57,142.26,369.18,147.59,361.06,155.44Z" transform="translate(21 -49)"/><path class="cls-38" d="M469.39,176.75l-37.78-33.11a6.63,6.63,0,0,0-9.35.62l-12,13.69a9.67,9.67,0,1,1-9.11,10.39l-12,13.69a6.63,6.63,0,0,0,.61,9.36l14.73,12.91a9.66,9.66,0,1,0,8.32,7.29l14.72,12.91a6.63,6.63,0,0,0,9.36-.62L470,186.11A6.64,6.64,0,0,0,469.39,176.75Z" transform="translate(21 -49)"/><g class="cls-39"><polygon class="cls-40" points="442.22 96.44 439.09 100.02 484.27 144.78 487.41 141.21 442.22 96.44"/><polygon class="cls-40" points="459.28 173.3 462.41 169.72 417.23 124.96 414.09 128.53 459.28 173.3"/><path class="cls-40" d="M413.94,153.75l-3.68,4.2a9.65,9.65,0,0,1,8,15.71l33.52,33.2,7.32-8.34Z" transform="translate(21 -49)"/></g><path class="cls-17" d="M485,149.41a6.85,6.85,0,0,0-.8-1.91l2.79-2.79-2.37-2.37-2.79,2.79a6.7,6.7,0,0,0-1.91-.79v-4h-3.35v4a6.82,6.82,0,0,0-1.91.79l-2.79-2.79-2.37,2.37,2.79,2.79a6.85,6.85,0,0,0-.8,1.91h-3.94v3.35h3.94a6.6,6.6,0,0,0,.8,1.91l-2.79,2.79,2.37,2.37,2.79-2.78a7.13,7.13,0,0,0,1.91.79v3.94h3.35v-3.94a7,7,0,0,0,1.91-.79l2.79,2.78,2.37-2.37-2.79-2.79a6.6,6.6,0,0,0,.8-1.91h3.94v-3.35Zm-3.72-.16a3.53,3.53,0,0,1-4.87,4.87,3.59,3.59,0,0,1-1.2-1.19,3.53,3.53,0,0,1,4.88-4.88A3.69,3.69,0,0,1,481.24,149.25Z" transform="translate(21 -49)"/><path class="cls-4" d="M245.62,172.88a9.76,9.76,0,0,0-1.1-2.64l3.85-3.85-3.28-3.28L241.24,167a9.43,9.43,0,0,0-2.64-1.09v-5.45H234v5.45a9.43,9.43,0,0,0-2.64,1.09l-3.85-3.85-3.28,3.28,3.85,3.85a9.74,9.74,0,0,0-1.09,2.64H221.5v4.64H227a9.74,9.74,0,0,0,1.09,2.64L224.19,184l3.28,3.28,3.85-3.85a9.43,9.43,0,0,0,2.64,1.09V190h4.64v-5.45a9.43,9.43,0,0,0,2.64-1.09l3.85,3.85,3.28-3.28-3.85-3.85a9.76,9.76,0,0,0,1.1-2.64h5.44v-4.64Zm-5.14-.22a4.9,4.9,0,1,1-1.65-1.65A5,5,0,0,1,240.48,172.66Z" transform="translate(21 -49)"/><path class="cls-5" d="M540.11,266.11a8.62,8.62,0,0,0-1-2.36l3.46-3.45-2.94-2.94-3.46,3.45a8.47,8.47,0,0,0-2.36-1V255h-4.16v4.88a8.6,8.6,0,0,0-2.36,1l-3.45-3.45-2.94,2.94,3.45,3.45a8.6,8.6,0,0,0-1,2.36H518.5v4.16h4.88a8.53,8.53,0,0,0,1,2.37l-3.45,3.45,2.94,2.94,3.45-3.45a8.92,8.92,0,0,0,2.36,1v4.88h4.16v-4.88a8.78,8.78,0,0,0,2.36-1l3.46,3.45,2.94-2.94-3.46-3.45a8.56,8.56,0,0,0,1-2.37H545v-4.16Zm-4.61-.19a4.37,4.37,0,0,1-6,6,4.52,4.52,0,0,1-1.49-1.49,4.39,4.39,0,0,1,7.52-4.55Z" transform="translate(21 -49)"/><path class="cls-5" d="M236,223.65a12.51,12.51,0,1,1,12.51-12.51A12.52,12.52,0,0,1,236,223.65Zm0-20.5a8,8,0,1,0,8,8A8,8,0,0,0,236,203.15Z" transform="translate(21 -49)"/><path class="cls-37" d="M492.08,186.73a8.31,8.31,0,1,1,8.3-8.3A8.31,8.31,0,0,1,492.08,186.73Zm0-13.61a5.31,5.31,0,1,0,5.31,5.31A5.32,5.32,0,0,0,492.08,173.12Z" transform="translate(21 -49)"/><path class="cls-17" d="M279,156.71a10,10,0,0,0,7.33,5.62l-18.35,8.54a6.84,6.84,0,0,0-3.32,9.1L286.52,227a6.84,6.84,0,0,0,9.1,3.32l47.06-21.9a6.85,6.85,0,0,0,3.33-9.1l-8-17.1a10,10,0,1,1-5.49-11.79l-8.45-18.17A6.86,6.86,0,0,0,315,149l-18.35,8.54a10,10,0,1,0-17.69-.8Z" transform="translate(21 -49)"/><polygon class="cls-40" points="299.19 160.14 302.13 166.46 324.05 105.53 317.79 108.44 299.19 160.14"/><path class="cls-40" d="M285.63,225.13l.89,1.9a6.84,6.84,0,0,0,9.1,3.32l.36-.16,28.06-78a6.85,6.85,0,0,0-9-3.18l-2.38,1.11Z" transform="translate(21 -49)"/><path class="cls-40" d="M320.62,185.53l-14.34,39.86,3.48-1.62,13-36.24A9.8,9.8,0,0,1,320.62,185.53Z" transform="translate(21 -49)"/><path class="cls-40" d="M326.24,169.9a9.47,9.47,0,0,1,2.95-.16l1.32-3.68-1.63-3.51Z" transform="translate(21 -49)"/><path class="cls-25" d="M463.49,313.21a18.57,18.57,0,0,0,8.81,4.08s6.72-10.51,9.17-16.7a17.86,17.86,0,0,0,1-4.49c-7.93,16.63-18.94,17.11-18.94,17.11Z" transform="translate(21 -49)"/><path class="cls-25" d="M519.32,297.59a66.39,66.39,0,0,1-.67,8.63l4.78,6.77a19.71,19.71,0,0,0,5.77-1.55Z" transform="translate(21 -49)"/></g></g></svg>